<?xml version="1.0" encoding="UTF-8"?>
<!DOCTYPE svg PUBLIC "-//W3C//DTD SVG 1.1//EN" "http://www.w3.org/Graphics/SVG/1.1/DTD/svg11.dtd">
<!-- Creator: CorelDRAW 2021.5 -->
<svg xmlns="http://www.w3.org/2000/svg" xml:space="preserve" width="2103px" height="133px" version="1.1" style="shape-rendering:geometricPrecision; text-rendering:geometricPrecision; image-rendering:optimizeQuality; fill-rule:evenodd; clip-rule:evenodd"
viewBox="0 0 2161.66 137.09"
 xmlns:xlink="http://www.w3.org/1999/xlink"
 xmlns:xodm="http://www.corel.com/coreldraw/odm/2003">
 <defs>
  <style type="text/css">
   <![CDATA[
    .fil0 {fill:black}
   ]]>
  </style>
 </defs>
 <g id="Слой_x0020_1">
  <metadata id="CorelCorpID_0Corel-Layer"/>
  <g id="_2906119913952">
   <path class="fil0" d="M0 15.06l772.81 0c33.32,0 53.01,4.58 75.44,15.8 17.38,8.69 32.64,20 48.12,31.59 10.87,8.12 21.44,16.85 32.77,24.36 6.67,4.41 13.96,9.22 21.26,12.84 13.12,6.51 27.15,12.17 43.44,13.69 3.14,0.29 7.46,0.42 10.27,0.8 3.76,0.52 18.04,-0.57 21.72,-1.07 3.46,-0.47 6.42,-1.38 10.05,-1.46l-18.22 7.02c-23.14,7.72 -46.75,11.13 -72.57,11.13 -14.09,0 -26.47,-2 -38.88,-5.4l-20.41 -6.61c-9.48,-3.43 -18.44,-7.93 -27.22,-12.64 -1.13,-0.61 -1.93,-0.92 -2.93,-1.5l-37.28 -25.16c-1.73,-1.37 -3.15,-2.62 -4.87,-3.99l-9.58 -8.13c-8.54,-7.91 -16.86,-16.27 -24.8,-24.8 -5.67,-6.1 -9.75,-12.6 -12.73,-16.06 -0.65,-0.75 -0.31,-1.11 -1.55,-1.11l-723.21 0 0 6.64c120.06,0 238.95,0.45 359.17,0.45 120.02,0 240.04,0 360.05,0 4.71,7.02 9.76,11.65 14.93,17.84 0.75,0.89 0.73,1.08 1.57,1.98 3.31,3.58 15.39,15.91 18.42,18.33 2.77,2.21 5,4.59 7.73,6.89 33.22,27.94 73.96,52.39 117.75,58.51 18.65,2.61 35.42,2.74 54.48,0.6 16.96,-1.9 32.14,-5.67 47.91,-10.99 17.24,-5.81 33.73,-14.57 48.37,-25.15 2.97,-2.15 5.71,-4.52 8.6,-6.46 1.7,0.9 2.51,1.79 4.11,2.98 29.25,21.83 62.78,35.36 99.96,39.54 8.8,0.99 12.13,1.07 20.39,1.31 6.94,0.21 6.22,0.42 13.71,0.02 2.63,-0.15 4.7,0.12 7.28,-0.26l13.16 -1.45c36.8,-6.22 63.08,-18.96 93.12,-38.86 7.36,-4.88 13.97,-10.43 20.89,-15.86l26.87 -24.95c3.34,-3.3 19.4,-20.8 20.26,-24.02 120.02,0 240.04,0 360.06,0 120.32,0 239.28,-0.45 359.61,-0.45l0 -6.64 -724.54 0c-1.28,4.81 -13.34,16.94 -17.82,22.04 -4.07,4.62 -8.43,9.4 -13.07,13.5l-7.07 6.22c-4.79,4.01 -9.3,8.44 -14.36,12.21 -3.44,2.56 -6.57,5.1 -10.06,7.66 -10.41,7.64 -21.39,14.81 -32.99,20.6 -29.5,14.73 -53.34,23.17 -90.19,23.17 -23.55,0 -44.85,-3.96 -65.72,-10.9 -3.03,-1 -15.69,-4.87 -18.43,-7.25 3.46,0.07 9.26,1.43 13.69,1.81 5.68,0.47 13.46,1.3 19.2,0.52 1.75,-0.24 3.41,0 5.13,-0.18 46.02,-5.03 73.5,-30.56 109.2,-57.32l18.41 -13.04c4.05,-2.7 8.63,-5.52 12.87,-7.95 4.43,-2.54 8.88,-4.84 13.83,-6.98 10.34,-4.45 19.9,-8.1 31.28,-10.35 11.39,-2.25 25.34,-3.06 39.01,-3.06l773.26 0 0 -13.73c0,-1.02 -0.31,-1.33 -1.33,-1.33l-761.74 0c-49.52,0 -93.16,3.45 -130.07,34.68 -5.77,4.87 -11.68,10.52 -16.63,16.14l-5.33 5.75c-1.1,1.15 -1.31,1.75 -2.41,2.9l-13.52 13.94c-3.87,3.86 -7.42,6.96 -11.71,10.43 -28.7,23.21 -65.64,27.22 -103.51,17.76 -10.89,-2.72 -20.04,-7.43 -29.05,-13.47 1.23,-1.66 4.64,-4.46 6.31,-6.09 6.06,-5.95 16.28,-14.62 16.28,-23.58 0,-6.21 -12.95,10.54 -14.28,11.85l-13.62 12.95c-6.26,-4.19 -15.33,-13.99 -20.48,-19.82 -0.83,-0.94 -0.88,-1.26 -1.77,-2.22 -0.98,-1.06 -7.86,-8.91 -7.86,-4.09 0,7.82 14.22,22.02 20.47,27.8 1.44,1.33 2.9,1.63 3.44,3.65 -1.91,0.51 -4.47,2.72 -6.34,3.84 -7.14,4.28 -14.02,6.82 -22.36,9.09 -11.1,3.03 -24.54,4.78 -38.62,4.78 -28.93,0 -48.97,-9.63 -65.16,-22.53l-5.8 -4.82c-1,-0.88 -1.7,-1.72 -2.66,-2.66 -2.75,-2.73 -6.16,-5.15 -8.56,-8.26l-15.8 -16.98c-3.77,-3.76 -6.79,-8 -10.96,-11.18 -1.19,-0.91 -1.67,-1.46 -2.76,-2.55 -1.15,-1.15 -1.75,-1.37 -2.89,-2.43 -3.77,-3.51 -8.19,-6.79 -12.5,-9.64 -2.18,-1.44 -4.45,-2.83 -6.84,-4.24 -32.08,-18.84 -70.29,-21 -110.53,-21l-763.07 0 0 15.06z"/>
   <path class="fil0" d="M1193.54 120.02c0,1.07 1.45,2.3 2.2,2.68 1.31,0.65 11.72,-0.27 13.34,-0.42 12.79,-1.24 26.93,-4.84 38.2,-10.52 1.27,-0.65 1.97,-0.99 3.25,-1.63 1.47,-0.73 2.01,-1.18 3.39,-1.92 15.75,-8.4 35.77,-28.05 50.34,-28.05 7.42,0 5.76,7.21 5.76,10.63 4.26,-0.35 13.7,-6.11 17.16,-9.41 1.67,-1.6 3.03,-2.38 4.64,-4.21 4.28,-4.86 7.87,-9.9 10.82,-15.76 0.82,-1.63 2.42,-4.83 2.8,-6.49 -1.44,-0.34 -3.94,-1.6 -5.32,-2.21 -1.59,-0.7 -3.68,-1.37 -5.58,-1.94 -12.61,-3.78 -24.91,-2.3 -36.61,2.69 -13.71,5.85 -29.25,23.52 -39.4,33.68l-9.38 8.78c-1.49,1.15 -1.98,1.86 -3.28,2.91 -2.22,1.79 -4.46,3.65 -6.72,5.25 -2.24,1.58 -5.1,3.57 -7.52,4.87 -10.96,5.88 -15.02,7.3 -27.64,9.12 -2.78,0.4 -10.45,-0.89 -10.45,1.95z"/>
   <path class="fil0" d="M816.21 54.92c0.23,2.73 4.29,9.83 5.67,12.04 4.6,7.34 10.16,13.37 17.27,18.17 2.25,1.52 9.33,5.59 12.49,5.66 -3.76,-16.14 12.56,-9.98 20.53,-5.91 4.56,2.32 7.87,4.86 11.89,7.59 3.84,2.62 10.26,7.76 14.22,10.14 13.28,7.99 19.66,12.38 37.6,16.88 14.95,3.75 17.01,2 25.92,3.31 1.75,0.26 5.3,1.14 6.32,-3.22 -3.53,-2.37 -5.59,-0.82 -10.45,-1.51 -10.9,-1.57 -18.25,-3.32 -27.73,-9.03 -33.46,-20.19 -51.43,-60.32 -86.71,-60.32 -17.54,0 -22.19,5.07 -27.02,6.2z"/>
   <path class="fil0" d="M914.53 3.99c-0.05,2.07 -0.69,3.99 -0.87,6.21 -2.06,24.77 3.57,39.96 20.47,57.01 7.36,7.42 17.22,13.16 26.46,17.82 4.84,2.45 10.17,4.5 15.78,6.37 20.35,6.78 39.01,9.71 60.11,3.54 2.27,-0.67 13.79,-5.41 14.94,-7.69 0.92,-1.81 -0.04,-1.17 -0.04,-2.66 -3.52,-0.93 -3.41,0.17 -7.98,2.21 -18.62,8.3 -38.39,7.39 -57.13,0.01 -13.49,-5.31 -27.27,-15.66 -35.25,-27.64 -10.95,-16.42 -11.46,-35.6 2.15,-50.21 1.01,-1.09 1.74,-1.55 2.55,-2.76 -8.88,-4.69 -15.29,-5.31 -25.25,-5.31 -6.75,0 -10.68,1.87 -15.94,3.1z"/>
   <path class="fil0" d="M1205.94 6.2c4.1,6.12 12.4,12.61 12.4,26.13 0,11.07 -2.3,19.39 -8.34,27.53 -5.97,8.04 -8.53,10.31 -15.67,16.22 -11.42,9.44 -31.36,16.92 -46.85,16.92 -24.53,0 -30.29,-8.41 -34.99,-8.41 -2.13,0 -5.07,1.61 0.35,4.96 1.37,0.85 2.71,1.43 4.08,2.13 15.37,7.75 33.78,7.82 50.53,4.46l17.85 -4.73c9.92,-3.46 21.36,-8.64 30.13,-14.61 5.81,-3.95 7.6,-6.15 12.28,-9.86 1.09,-0.86 1.79,-1.67 2.59,-2.72 2.53,-3.33 3.71,-3.82 7.62,-9.66 9.05,-13.52 11.24,-26.68 10.06,-43.02l-0.8 -5.83c-0.37,-1.76 0.38,-0.54 -0.67,-1.55 -1.3,-1.26 -11.74,-3.27 -14.88,-3.27 -10.63,0 -15.94,0.15 -25.69,5.31z"/>
   <path class="fil0" d="M1071.31 23.03l-0.89 0c-0.71,-3.03 -1.33,-4.42 -1.33,-8.41 -2.53,0.67 -3.85,2.82 -4.8,4.94 -0.76,1.72 -1.84,5.99 -1.84,8.34l-2.66 -2.65c-1.56,1.04 -1.56,1.18 -1.79,3.51 -0.84,8.35 0.42,19.84 8.56,24.26 5.44,2.95 9.68,0.84 14.05,-2.09 4.79,2.54 9.34,5.88 15.45,1.28 9.02,-6.78 8.95,-24.66 5.81,-26.96 -2.26,0.6 -1.54,1.5 -3.11,2.65 0,-6.34 -2.03,-11.08 -6.2,-13.28 -0.02,1.17 -0.37,3.31 -0.62,4.69 -0.31,1.72 -0.63,3.05 -1.59,4.16 -0.95,-4.09 -5.28,-15.5 -9.74,-15.5 -3.72,0 -8.96,10.97 -9.3,15.06z"/>
   <path class="fil0" d="M1170.51 53.15c0,8.65 -1.28,16.26 -8.76,20.91 -2.82,1.76 -5.6,2.73 -9.35,3.5 -1.64,0.33 -3.56,0.38 -5.55,0.64 -4.49,0.59 -5.29,-0.33 -4.24,4.18 11.56,2.69 32.63,-10.26 39.42,-19.04 1.73,-2.24 3.35,-4.18 4.85,-6.67 4.66,-7.75 6.67,-16.91 4.54,-26.21 -0.43,-1.9 -1.28,-3.93 -1.42,-5.66 -9.03,0 -15.74,2.12 -20.05,6.97 -3.38,3.83 -2.46,4.57 -1.2,9.41 0.84,3.25 1.76,7.96 1.76,11.97z"/>
   <path class="fil0" d="M969 37.65c0,6.34 2.34,13.76 4.79,17.8 6.06,10 13.76,16.71 24.15,21.91 5.94,2.97 11.78,5.46 19.34,5.46 1.44,0 1.71,-1.26 2.21,-2.22 -2.08,-3.92 -2.48,-1.44 -10.31,-2.97 -3.85,-0.75 -7.22,-1.91 -9.88,-3.85 -15.35,-11.19 -5.5,-33.47 -5.5,-37.46 0,-3.34 -5.18,-7.26 -7.81,-8.57 -3.74,-1.86 -8.05,-2.95 -13.44,-2.95 -1.63,0 -1.91,2.75 -2.55,5.42 -0.42,1.73 -1,5.59 -1,7.43z"/>
   <path class="fil0" d="M1080.61 71.3c7.64,0 9.05,-12.4 -0.45,-12.4 -5.1,0 -7.42,6.96 -3.86,10.51 0.62,0.63 3.31,1.89 4.31,1.89z"/>
  </g>
 </g>
</svg>
