<?xml version="1.0" encoding="UTF-8"?>
<!DOCTYPE svg PUBLIC "-//W3C//DTD SVG 1.1//EN" "http://www.w3.org/Graphics/SVG/1.1/DTD/svg11.dtd">
<!-- Creator: CorelDRAW 2021.5 -->
<svg xmlns="http://www.w3.org/2000/svg" xml:space="preserve" width="1699px" height="581px" version="1.1" style="shape-rendering:geometricPrecision; text-rendering:geometricPrecision; image-rendering:optimizeQuality; fill-rule:evenodd; clip-rule:evenodd"
viewBox="0 0 1630.78 557.13"
 xmlns:xlink="http://www.w3.org/1999/xlink"
 xmlns:xodm="http://www.corel.com/coreldraw/odm/2003">
 <defs>
  <style type="text/css">
   <![CDATA[
    .fil0 {fill:black}
   ]]>
  </style>
 </defs>
 <g id="Слой_x0020_1">
  <metadata id="CorelCorpID_0Corel-Layer"/>
  <g id="_2560926708016">
   <path class="fil0" d="M229.33 253.27c0,34.98 13.49,60.85 32.81,78.03 17.22,15.31 48.41,27.72 80.58,27.72 28.02,0 70.74,-17.34 75.17,-15.29 -0.99,3.69 -0.35,1.73 -2.52,3.85l-34.8 31.45c-29.51,24.7 -57.56,51.36 -87.71,75.38 -37,29.48 -94.66,76.61 -159.08,76.61 -27.88,0 -48.13,-2.33 -70.5,-16.14 -13.78,-8.52 -25.12,-22.57 -29.68,-40.39 -20.66,-80.67 74.38,-91.94 81.06,-63.23 -27.14,2.25 -30.68,57.33 22.94,57.33 21.83,0 43.32,-18.77 43.32,-40.77 0,-14.94 -2.34,-24.92 -10.9,-36.25 -5.39,-7.14 -13.06,-13.22 -20.94,-17.28 -41.83,-21.6 -111.96,-11.4 -138.37,32.39 -7.34,12.16 -9.91,22.67 -10.71,33.63l0 32.1c0,20.55 22.6,50.27 38.45,60.93 30.21,20.31 59.73,23.16 96.6,23.16 62.31,0 140.75,-48.91 184.42,-89.51 3.3,-3.07 5.11,-4.21 8.27,-7.01l60.5 -55.44c3.15,-3.04 4.6,-3.45 7.68,-6.33 4.85,-4.54 18.89,-18.58 24.52,-20.08 1.92,4 -5.83,22.44 -7.35,29.6 -8.94,42.18 -3.75,83.72 28.05,115.33 40.04,39.81 113.76,40.43 157.5,7.79 76.8,-57.32 4.55,-159.71 -74.67,-129.45 -13.7,5.23 -29.64,17.19 -29.64,34.06 0,21.94 5.1,42.05 33.13,42.05 5.11,0 13.74,-2.29 17.47,-4.19 15.34,-7.83 19.35,-31.29 11.83,-45.5 24.21,0 44.59,18.11 44.59,42.04 0,20.76 -6.76,34.69 -23.93,46.15 -17.86,11.91 -33.61,15.01 -57.61,15.01 -49.56,0 -80.26,-35.33 -80.26,-81.54 0,-26.43 3.78,-50.08 15.33,-70.04 29.68,-51.27 92.85,-65.01 156.66,-65.01 43.27,0 100.18,17.56 130.93,46.17 3.72,3.46 6.52,6.58 10.18,10.2 6.24,6.19 12.86,14.2 17.29,22.2 14.4,25.98 17.42,46.1 17.42,78.14 0,29.98 -15.83,53.27 -38.03,61.34 -64.85,23.59 -85.5,-42.64 -43.51,-52.43 2.8,33.61 43.32,25.97 43.32,-6.37 0,-19.84 -33.29,-42.98 -73.19,-13.31 -24.82,18.47 -24.62,61.9 -0.91,81.04 38.54,31.12 122.96,16.39 137.8,-47.34 6.77,1.81 2.92,6.76 12.67,23.01 14.13,23.55 38.41,39.42 70.15,39.42 26.75,0 48.99,-2.52 65.19,-22.71 24.99,-31.14 5.87,-80.64 -38.49,-84.33 -55.69,-4.62 -51.63,52.25 -19.06,52.25 9.76,0 18.89,-11.78 19.11,-21.66 29.16,6.8 30.16,45.63 -2.76,54.58 -44.88,12.2 -78.78,-19.71 -78.78,-68.59 0,-23.7 6.18,-53.41 15.82,-69.54 20.13,-33.69 50.86,-56.49 88.8,-69.18 17.54,-5.87 44.65,-12.89 67.38,-12.89 77.8,0 138.66,20.35 164.38,72.59 18.4,37.35 20.42,104.61 -21.26,130.4 -30.28,18.73 -77.39,18.77 -106.56,-2.57 -36.22,-26.5 -27.27,-87.03 19.5,-87.03 -9.71,40.55 29.69,67.18 57.05,37.94 14.32,-15.3 12.73,-46.48 -12.86,-60.48 -25.03,-13.7 -61.43,-10.8 -84.45,6.49 -10.91,8.18 -18.59,18.86 -24.74,31.31 -6.46,13.07 -9.23,28.26 -5.13,44.67 3.2,12.77 11.36,25.15 20.1,34.68 17.97,19.58 52.82,31.52 79.33,31.52 34.41,0 63.84,-5.8 87.59,-29.62 9.14,-9.17 16.11,-18.55 21.99,-30.26 34.39,-68.5 -18.96,-128.44 1.39,-113.81 12.85,9.24 23.73,21.7 35.92,31.89l35.61 31.92c12.04,12.31 31.95,27.99 45.38,38.71 32.29,25.78 67.35,49.24 107.03,62.41 29.07,9.65 46.4,11.31 77.88,11.31 46.92,0 86.02,-19.98 106.98,-56.1 7.29,-12.56 11.43,-25.45 12.78,-38.06l0 -18.41c-4.19,-38.58 -34.71,-71.22 -80.62,-78.19 -36.79,-5.58 -69.04,-1.4 -91.09,25.42 -24.86,30.24 -6.77,77.43 31.57,77.43 18.16,0 42.04,-5.41 42.04,-26.76 0,-14.87 -3.16,-26.86 -19.11,-30.57 6.83,-25.56 84.09,-20.5 84.09,42.04 0,49.31 -40.7,77.72 -87.91,77.72 -43.91,0 -73.3,-7.94 -106.79,-28.26 -32.11,-19.49 -88.48,-62 -117.12,-89.28l-55.42 -47.78c-5.27,-4.66 -20.79,-17.33 -23.9,-21.97 7.08,-1.65 9.98,0.8 17.38,3.01 18.75,5.59 38.37,12.28 59.07,12.28 58.6,0 115.94,-36.15 115.94,-98.1 0,-20.09 -1.69,-40.35 -10.6,-56.93 -21.65,-40.3 -64.89,-55.19 -109.16,-55.19 -84.45,0 -120.73,88.57 -69.28,113.87 14.27,7.02 38.9,7.38 51.68,-2.78 13.95,-11.09 21.28,-53.76 -28.27,-53.76 17.38,-32.84 50.34,-33.94 82.99,-23.11 30.94,10.27 52.06,33.37 53.08,70.37 0.62,22.29 -8.71,42.46 -23.63,57.54 -24.68,24.95 -62.78,25.03 -95.11,18.02 -22.17,-4.8 -40.15,-11.68 -61.92,-17.07 -32.99,-8.17 -65,-14.37 -99.3,-19.18 -74.6,-10.48 -134.15,-10.69 -201.14,29.61 -24.68,14.85 -44.82,34.95 -59.4,59.09 -3.71,6.14 -11.53,20.72 -12.18,28.58l-2.55 0c-2.47,-10.6 -7.52,-18.39 -12.3,-27.19 -31.64,-58.2 -116.61,-98.94 -182.63,-98.94 -27.9,0 -59.08,3.28 -84.27,7.47 -22.51,3.74 -43.89,7.78 -64.81,12.9l-60.98 16.74c-39.29,12.05 -90.45,22.5 -124.06,-7.48 -32.41,-28.91 -34.36,-88.59 0.48,-116.1 7.52,-5.94 15.69,-10.95 25.13,-14.37 18.66,-6.74 47.56,-8.66 65.14,1.5 6.65,3.84 17.19,13.29 19.14,21.62 -11.64,0 -21.08,1.3 -27.71,6.69 -13.29,10.81 -13.8,32.81 -1.96,44.64 21.49,21.46 76.8,9.3 76.8,-32.21 0,-26.87 -11.98,-41.85 -32.19,-56.99 -57.57,-43.14 -180.57,-17.28 -180.57,85.01z"/>
   <path class="fil0" d="M749.14 82.55c0,30.03 5.27,42.71 16.56,71.35 32.63,82.69 30.16,79.37 44.94,164 1.02,5.83 2.2,9.01 2.2,16.91l13.67 -64.05c3.91,-22.75 7.97,-40.95 14.53,-60.64 8.96,-26.92 35.51,-89.27 35.51,-114.83 0,-33.96 -3.7,-70.36 -32.83,-88.21 -17.06,-10.45 -42.15,-8.45 -58.93,0.28 -8.31,4.32 -14.03,10.06 -19.28,17.66 -9.19,13.31 -16.37,35.36 -16.37,57.53z"/>
   <path class="fil0" d="M872.72 276.21c0,6 0.29,10.57 2.55,15.29 3.52,-0.94 3.08,-1.6 5,-3.92l34.49 -34.32c16,-11.55 31.64,-18.03 51.69,-26.02 19.37,-7.72 36.87,-13.85 54.92,-22.8 62.77,-31.13 29.44,-86.21 -9.77,-86.21 -21.98,0 -40.83,10.84 -53.52,20.38 -3.72,2.8 -6.29,4.55 -9.87,7.96 -3.79,3.63 -6.33,5.02 -10.2,8.91 -26.75,26.81 -65.29,84.97 -65.29,120.73z"/>
   <path class="fil0" d="M565.68 160.27c0,11.39 5.28,21.07 11.12,27.1 3.85,3.99 5.57,5.73 10.26,8.85 3.8,2.53 8.51,5.73 12.67,7.72 17.67,8.45 37.77,15.06 57.19,21.79 61.17,21.22 83.59,62.58 89.67,67.04 4.45,-19.1 3.68,-27.36 -4.71,-48.8l-11.86 -25.08c-4.44,-8.53 -7.85,-14.36 -13.24,-22.44 -10.03,-15.02 -19.44,-27.46 -32.3,-40.32 -6.41,-6.42 -12.4,-11.7 -19.77,-17.17 -55.55,-41.21 -99.03,-12.55 -99.03,21.31z"/>
  </g>
 </g>
</svg>
