<?xml version="1.0" encoding="UTF-8"?>
<!DOCTYPE svg PUBLIC "-//W3C//DTD SVG 1.1//EN" "http://www.w3.org/Graphics/SVG/1.1/DTD/svg11.dtd">
<!-- Creator: CorelDRAW 2021.5 -->
<svg xmlns="http://www.w3.org/2000/svg" xml:space="preserve" width="1373px" height="221px" version="1.1" style="shape-rendering:geometricPrecision; text-rendering:geometricPrecision; image-rendering:optimizeQuality; fill-rule:evenodd; clip-rule:evenodd"
viewBox="0 0 1246.14 200.83"
 xmlns:xlink="http://www.w3.org/1999/xlink"
 xmlns:xodm="http://www.corel.com/coreldraw/odm/2003">
 <defs>
  <style type="text/css">
   <![CDATA[
    .fil0 {fill:black}
   ]]>
  </style>
 </defs>
 <g id="Слой_x0020_1">
  <metadata id="CorelCorpID_0Corel-Layer"/>
  <g id="_2561857132816">
   <path class="fil0" d="M338.88 86.53c-17.76,0 -49.63,10.99 -65.87,17.43 -21.39,8.49 -41.41,20.74 -61.14,32.49 -2.52,1.5 -3.78,2.46 -6.44,3.9 -10.96,5.94 -21.71,12.98 -32.47,19.18l-56.21 27.1c-2.04,0.81 -5.93,2.37 -8.4,2.57l0 1.3c4.6,0.1 7.45,1.51 13.58,1.31 8.86,-0.29 16.9,-2.54 24.79,-5.56l39.97 -21.38 51.47 -32.47c1.63,-0.94 3.36,-1.75 5.07,-2.68 1.14,-0.63 1.32,-0.66 2.46,-1.42 5.98,-3.94 22.63,-12.61 28.62,-14 -2.04,3.04 -14.14,9.36 -17.96,11.75l-24.15 15.89c-2.29,1.52 -3.79,2.74 -6.06,4.27l-29.14 20.57c-19.02,14.29 -43.49,29.34 -67.05,33.05 -11.24,1.77 -23.69,0.7 -33.09,-5 -3.15,-1.9 -15.44,2.43 -24.56,3.53 -29.68,3.6 -57.59,-0.52 -68.76,-28.98 -5.24,-13.36 -5.25,-31.39 3.97,-43.56 0.86,-1.14 1.4,-1.46 2.41,-2.76 16.04,-20.66 62.12,-13.54 55.45,18.65 -2.58,12.47 -17.45,13.4 -24.01,5.35 -3.31,-4.06 -4.11,-10.76 -0.85,-15.36 3.62,-5.11 5.67,-6.43 14.24,-6.43 -5.6,-8.36 -25.2,-6.68 -33.43,1.44 -7.01,6.92 -9.31,16.51 -7.65,26.73 0.68,4.21 1.3,5.56 2.7,8.92 8.48,20.29 27.34,22.37 47.44,22.35 3.77,-0.01 18.5,-2.23 20.65,-3.26 -0.48,-2.02 -0.89,-2.21 -1.67,-4.14 -4.18,-10.23 -3.98,-26.07 1.28,-34.98 1.85,-3.14 2.61,-4.22 4.97,-6.66 21.85,-22.6 54.95,-5.53 44.31,13.96 -2.45,4.49 -8.85,8.92 -16.84,6.23 -5.4,-1.82 -10.13,-10.8 -4.29,-15.09 -3.58,15.38 13.14,16.41 17.81,6.83 2.57,-5.29 -0.36,-10.96 -3.69,-13.19 -9.16,-6.14 -19.6,-3.9 -28.61,2.85 -8.53,6.38 -11.85,17.25 -9.8,28.45 1.05,5.7 2.98,9.94 5.57,13.81 4.38,-2.11 13.09,-4.05 18.16,-5.73 23.08,-7.64 44.6,-19.13 66.2,-30.01l28.83 -15.74c0.88,-0.59 0.73,-0.59 1.95,-1.27 10.4,-5.73 21.57,-10.72 31.88,-16.55 9.01,-5.1 23.22,-10.84 33.54,-14.25 3.37,-1.11 6,-2.08 9.29,-2.98 3.24,-0.88 5.71,-1.95 9.31,-2.96 23.95,-6.74 56.53,-10.88 86.37,-7.49 7.6,0.86 13.69,1.67 21.02,2.87l19.83 4.07c40.59,8.12 85.57,21.31 127.05,15.25 3.57,-0.53 6.69,-0.72 9.95,-1.68 9.84,-2.86 17.26,-4.81 26.3,-9.86 10.32,-5.76 18.42,-13.97 24.85,-23.58 5.93,-8.86 12.63,-22.18 9.19,-36.06 -2.98,-12.05 -10.23,-8.75 0.62,-25.15 1.76,-2.66 3.8,-4.82 3.88,-8.4l1.93 0c1.31,5.62 6.14,10.17 8.4,15.49 3.51,8.24 -1.72,11.26 -3.52,17.8 -3.96,14.39 4.57,32.61 14.33,43.07 1.31,1.41 1.37,1.84 2.59,3.22 1.07,1.22 2.04,2.07 3.22,3.25 1.94,1.95 4.06,3.54 6.34,5.28 4.84,3.67 9.65,6.3 15.13,8.76 35.74,16.06 79.37,8.06 116.17,1.21l48.88 -10.53c3.92,-0.72 6.51,-1.44 10.22,-2.04 29.04,-4.76 59.03,-5.49 88.03,-0.1 2.93,0.54 6.9,1.63 10.03,2.25 14.71,2.88 31.5,8.9 45.22,14.82 3.02,1.31 4.67,2.35 7.93,3.69 3.01,1.25 5.36,2.59 8.24,4.04 8.02,4.04 16.24,7.59 23.95,12.21l38.91 21.14c2.97,1.48 5.04,2.87 7.96,4.32l67.37 28.84c3.33,0.96 6.45,2.09 9.47,2.8 2.13,-4.04 4.46,-8.73 5.15,-13.58 1.65,-11.5 -1.03,-20.34 -8.85,-27.93 -13.88,-13.46 -39.34,-5.69 -33.16,9.27 2.57,6.2 13.86,9.19 17.93,1.68 1.85,-3.42 0.48,-4.94 0.21,-8.19 5.5,3.69 1.15,12.63 -3.95,14.79 -7.21,3.04 -14.53,-1 -17.13,-5.34 -5.47,-9.12 -0.06,-19.38 8.71,-23.1 15.21,-6.45 32.56,1.44 40.35,15.37 3.01,5.39 4.36,11.38 4.33,19.61 -0.05,9.61 -4.05,14.01 -4.55,20 7.02,0 13.25,2.6 20.64,2.61 12.07,0.01 19.15,-0.05 30.2,-4.73 7.69,-3.25 13.81,-9.74 17.17,-17.7 5.39,-12.79 3.72,-27.67 -4.87,-35.57 -4.33,-3.98 -8.82,-6.01 -16.47,-6.82 -5.47,-0.59 -14.83,1.6 -17.61,5.38 8.08,0 10.73,0.98 14.24,5.79 6.49,8.91 -0.75,23.38 -13.45,21.21 -4.34,-0.74 -9.61,-4.86 -10.75,-9.29 -9.03,-35.32 49.01,-45.11 62.36,-8.11 1.58,4.38 3.46,11.85 3.06,16.77 -4.07,50.82 -48.97,52.46 -88.77,43.75 -6.26,-1.37 -5.43,-2.08 -10.81,0.71 -1.3,0.68 -2.14,1.18 -3.47,1.69 -20.56,7.86 -45.03,-0.88 -63.04,-10.96 -4.48,-2.51 -8.37,-4.73 -12.58,-7.44 -4.19,-2.68 -7.79,-5.2 -12.01,-8.01l-47.06 -33.01c-1.95,-1.46 -3.72,-2.63 -5.76,-3.93l-6.19 -4.14c-2.5,-1.69 -23.69,-13.27 -24.68,-16 8.85,2.06 49.26,25.04 58.86,32.19 5.98,4.45 12.66,7.93 18.89,12.1 21.7,14.53 47.27,31.73 74,33.2 6.41,0.35 9.42,-1.19 14.21,-1.29 -1.59,-2.17 -11.74,-5.15 -14.48,-6.19 -5.4,-2.05 -9.63,-3.89 -14.57,-6.09 -9.45,-4.22 -18.58,-9.45 -27.77,-14.21 -22.57,-11.68 -43.87,-26.01 -65.91,-38.7l-13.65 -7.66c-9.11,-4.92 -18.76,-9.74 -28.38,-13.59 -17.35,-6.96 -48.82,-17.53 -66.42,-17.53 0.14,0.09 0.37,0.34 0.44,0.21 0.07,-0.14 0.34,0.16 0.44,0.2l8.57 3.05c3.02,1.06 6.06,2.84 8.61,4.31 31.27,18 40.7,80.91 0.82,91.82 -9.77,2.67 -26.38,0.95 -34.48,-3.27l-5.62 -4.07c-2.75,-2.2 -5.56,-5.88 -7.58,-9.21 -6.43,-10.66 -9.76,-30.84 -0.42,-41.23 12.76,-14.19 30.14,-7.4 35.58,0.91 2,3.07 2.72,4.92 2.88,9.85 0.62,19.26 -15.33,16.66 -18.19,8.02 -2.55,-7.69 3.85,-13.95 11.53,-12.16 -5.44,-7.44 -22.5,-4.51 -28.43,3.21 -1.8,2.35 -2.48,3.33 -3.45,6.88 -0.74,2.73 -1.35,5.8 -0.98,9.2 1.94,17.65 22.01,24.83 37.94,21.95l7.93 -2.41c2.38,-0.85 5.23,-1.89 7.12,-3.21 2.14,-1.5 4.01,-2.58 5.88,-4.45 29.08,-29.15 5.33,-83.82 -78.41,-69.36l-34.19 6.49c-16.75,3.38 -33.55,7.6 -50.67,10.67 -3.23,0.58 -5.78,0.78 -8.95,1.39 -9.14,1.74 -18.72,2.75 -27.52,3.46 -5.89,0.48 -14.55,0.13 -20.66,0.06 -5.92,-0.07 -11.95,-1.3 -17.8,-2.22 -14.41,-2.26 -32.93,-9.88 -43.03,-18.96 -6.45,-5.8 -4.83,-4.79 -10.02,-10 -2.67,-2.67 -6.81,-8.69 -8.56,-12.1 -4.04,-7.87 -8.16,-16.46 -11.02,-25.14 -0.78,-2.38 -0.11,-1.98 -1.89,-3.28 -3.48,14.96 -10.98,28.5 -20.29,40.41 -2.57,3.29 -7.09,7.66 -10.42,10.24l-12.11 7.91c-2.86,1.59 -3.81,2.1 -6.88,3.45 -18.85,8.3 -41.41,11.31 -61.98,9.63 -53.02,-4.31 -119.97,-28.05 -160.74,-23.77 -4.39,0.46 -12.58,2.01 -16.74,3.27 -6.95,2.12 -14.18,5.94 -19.65,10.7l-5.18 5.16c-3.35,4.14 -5.79,7.81 -7.45,13.21 -7.26,23.53 6.94,43.04 29.33,48.53 8.58,2.11 18.25,1.09 25.8,-3.09 4.26,-2.35 8.44,-5.08 10.63,-9.39 3.94,-7.75 3.03,-18.88 -1.22,-24.67 -7.01,-9.57 -24.04,-10.46 -28.52,-3.77 3.49,-0.81 6.97,-0.08 9.25,2.38 8.16,8.84 -5.06,23.5 -14.25,12.31 -4.89,-5.94 -4.54,-27.72 19.26,-29.53 14.77,-1.13 24.05,14.06 23.2,29.05 -0.82,14.47 -9.33,28.47 -19.36,33.6 -11.08,5.66 -32.33,6.75 -43.17,-0.13 -21.42,-13.6 -21.18,-45.64 -10.45,-67.06 6.4,-12.76 18.65,-22.74 32.29,-27.12 1.32,-0.42 1.07,-0.3 2.43,-0.79 0.04,-0.02 1.32,-0.5 1.41,-0.54l0.89 -0.39c0.1,-0.05 0.3,-0.12 0.44,-0.21z"/>
   <path class="fil0" d="M581.68 156.92l-120.11 0c-2.48,0 -6.77,12.07 -14.85,0 -6.04,0.5 -13.01,3.71 -16.14,8.39l-43.19 -8.48c-3.08,-0.46 -4.54,0.13 -5.25,-2.5 7.64,-1.77 15.44,-3.45 23.52,-4.89 4.29,-0.76 8.17,-1.3 12.01,-2.2 16.88,-3.99 9.24,-3.23 19.31,2.62 3.48,2.02 5.34,2.16 9.74,3.18 2.68,-3.99 2.39,-4.52 7.75,-4.52 5.25,0 4.26,4.52 7.1,4.52l120.11 0c0,-9.36 0.64,-15.59 7.59,-23.4 2.82,-3.17 10.36,-8.99 13.85,-11.34l12.52 -12.67c2.85,-4.46 5.45,-13.64 6.72,-19.1 4.43,3.24 1.34,18.79 20.54,31.77 11.21,7.58 24.46,19.01 20.79,34.74l122.05 0c1.4,-5.25 5.23,-4.52 8.39,-4.52 2.54,0 3.62,2.81 4.52,4.52 5.52,-0.46 10.68,-2.69 14.35,-6.31 3.31,-3.26 7.18,-1.43 15.87,0.63l35 8.27 -43 8.66c-10.09,2.12 -5.45,-1.76 -13.43,-5.18 -2.14,-0.92 -6.18,-2.14 -8.79,-2.19 -1.24,4.64 -6.69,6.65 -10.71,3.61 -1.07,-0.8 -1.85,-2.29 -2.2,-3.61l-122.7 0c-1.11,2.1 -1.3,3.51 -2.83,5.55 -13.44,17.92 -30.74,8.35 -30.74,-1.68 0,-4.39 0.38,-7.04 3.35,-10.2 5.96,-6.34 17.34,-4.9 17.96,2.45l9.68 0c0,-12.07 -9.49,-20.03 -16.92,-25.05 -5.83,-3.95 -18.2,-15.5 -19.89,-22.73 -1.21,0.32 -1.19,0.12 -2.52,2.63 -0.61,1.15 -1.15,2.21 -1.9,3.28 -13.97,20.14 -33.67,21.93 -33.67,41.87l9.04 0c3.13,-11.75 21.95,-6.56 21.95,6.46 0,15.57 -22.17,17.45 -30.74,2.97 -1.15,-1.94 -1.98,-5.55 -4.13,-5.55z"/>
   <path class="fil0" d="M307.24 139.48c0,-13.99 7.15,-23.15 15.62,-28.94 22.36,-15.29 58.83,-7.77 82.44,-3.9 18.05,2.96 39.2,8.75 57.94,11.8l19.59 3.66c6.49,1.31 13.06,1.91 20.34,2.91 35.43,4.85 64.45,-1.44 91.7,-22.71l8.28 -7.21c2.58,-2.58 5.4,-6.02 8.24,-7.91 -1.99,8.53 -18.36,23.17 -26.77,28.76l-9.61 5.89c-12.4,6.68 -24.29,10.62 -38.34,12.67 -4.78,0.7 -12.49,1.82 -18.28,1.79l-19.36 -1.33c-20.98,-1.29 -41,-6.17 -60.98,-10.06l-59.07 -12.6c-18.89,-3.75 -54.38,-4.15 -64.44,14.46 -9.01,16.66 -0.5,25.92 1.09,32.74 -4.09,-2.74 -8.39,-12.88 -8.39,-20.02z"/>
   <path class="fil0" d="M931.03 158.21c0.26,-3.16 2.48,-5.53 3.39,-9.52 3.45,-15 -4.13,-28.36 -17.49,-33.86 -19.01,-7.82 -39.17,-4.37 -59.14,-0.81 -7.98,1.43 -15.38,2.92 -22.45,4.67l-54.86 11.66c-4.12,0.68 -7.62,1.38 -11.53,2.03 -19.92,3.34 -53.32,5.93 -72.57,-0.4 -16.37,-5.38 -18.04,-5.45 -32.32,-14.18 -12.31,-7.54 -23.31,-17.83 -30.07,-30.62 3.37,0.9 4.35,4.06 6.6,6.31 1.4,1.4 2.05,1.47 3.58,2.88 1.35,1.25 2.14,2.33 3.57,3.53l15.82 11.3c8.47,5.32 18.89,9.03 28.8,11.88 32.35,9.3 83.28,-2.88 117.66,-10.33l11.28 -2.28c7.59,-1.7 14.76,-3.18 22.65,-4.47 24.88,-4.09 46.27,-8.82 71.49,0.64 3.12,1.16 5.95,2.86 8.76,4.8 8.3,5.74 13.97,15.38 13.94,26.74 -0.01,6.85 -1.49,16.27 -7.11,20.03z"/>
   <path class="fil0" d="M663.69 85.88c2.46,0.21 6.63,2.5 9.44,3.48 29.84,10.46 76.01,5.21 100.07,-13.43 5.7,-4.42 16.28,-19.38 6.62,-26.75 -10.53,-8.01 -23.79,0.51 -23.79,8.94 0,3.6 2.48,4.28 3.23,7.1 -12.09,-1.01 -11.56,-30.35 14.85,-30.35 5.78,0 11.83,3.45 15.03,6.29 13.71,12.13 5.4,34.79 -9.49,44.45 -25.69,16.65 -62.27,19.16 -92.43,11.62 -4.07,-1.02 -14.99,-5.23 -18.5,-7.34 -2.23,-1.34 -3.65,-1.95 -5.03,-4.01z"/>
   <path class="fil0" d="M449.95 59.41l0 -3.88c0,-20.83 32.48,-29.22 42.31,-9.38 2.96,5.98 2.49,14.57 -3.48,18.61 -0.39,0.26 -0.35,0.34 -1.06,0.52 -4.97,1.25 8.56,-7.9 -3.13,-15.97 -12.32,-8.51 -27.78,0.54 -20.89,15.07 3.45,7.25 10.66,14.44 17.89,17.63 28.32,12.48 59.08,17.91 90.75,7.45 3.02,-1 7.12,-3.34 9.99,-3.58 -4.09,6.1 -21.68,10.76 -29.96,12.67 -21.21,4.89 -45.68,3.31 -65.86,-3.38 -2.26,-0.75 -3.13,-1.05 -5.14,-1.96 -2.04,-0.93 -3.74,-1.34 -5.59,-2.16 -12.17,-5.38 -25.83,-17.34 -25.83,-31.64z"/>
   <path class="fil0" d="M638.51 45.2c0,-8.17 1.24,-15.62 4.5,-21.97 8.16,-15.92 17.45,-12.54 17.45,-6.44 0,8.29 -14.85,15.06 -14.85,29.06 0,11.85 -0.27,12.91 4.94,24.12 2.03,4.36 0.97,2.83 4.09,6.88 1.35,1.75 3.94,4.23 4.53,6.45 -12.06,-6.38 -20.66,-24.25 -20.66,-38.1z"/>
   <path class="fil0" d="M600.41 51.01c0,-23.07 -14.85,-23.3 -14.85,-34.22 0,-5.79 9.29,-10.98 18.1,9.02 6.15,13.98 3.71,29.93 -3.24,43.3 -2.48,4.78 -8.46,11.49 -13.57,14.19 0.65,-2.8 5.48,-7.07 8.83,-13.77 2.26,-4.51 4.73,-12.12 4.73,-18.52z"/>
   <path class="fil0" d="M967.84 154.98c0,-23.55 -12.56,-36.39 -13.56,-40.68 2.29,0.61 3.13,2.14 4.68,3.71 7.58,7.66 12.75,15.34 16.54,25.44 7.69,20.51 0.67,39.15 -6.53,33.7 -4.4,-3.33 -1.13,-15.67 -1.13,-22.17z"/>
   <path class="fil0" d="M291.74 114.3c-0.45,1.7 -6.16,9.61 -9.42,17.7 -1.19,2.95 -2.57,7.04 -3.23,10.33 -3.34,16.84 -0.27,17 -0.27,30.08 0,6.15 -8.48,10.31 -11.17,-3.67 -2.85,-14.85 2.77,-29.14 10.65,-40.76 2.65,-3.91 8.77,-12.6 13.44,-13.68z"/>
   <path class="fil0" d="M650.78 54.24c0,-5.56 1.46,-11.64 3.88,-15.49 5.87,-9.34 15.49,-10.32 15.49,-1.94 0,8.97 -16.15,2.43 -16.15,30.99 -2.06,-1.51 -3.22,-10.53 -3.22,-13.56z"/>
   <path class="fil0" d="M592.01 64.58c0,-19.61 -13.92,-21.09 -16.12,-25.93 -2.49,-5.49 4.78,-12.55 13.37,-2.31 4.43,5.28 6.7,12.9 5.63,20.11l-3.52 11.35c0.21,-2.56 0.64,-1.55 0.64,-3.22z"/>
   <path class="fil0" d="M617.2 75.55c0,-9.33 11.62,-7.76 11.62,-2.58 0,3.78 -0.28,7.75 -5.17,7.75 -4.8,0 -6.45,-4.47 -6.45,-5.17z"/>
   <polygon class="fil0" points="931.03,158.21 931.03,158.85 930.28,158.32 "/>
  </g>
 </g>
</svg>
